<svg width="78" height="10" viewBox="0 0 78 16" fill="none" xmlns="http://www.w3.org/2000/svg">
<path d="M3.78653 8.05613C4.11737 8.05613 4.38557 7.75317 4.38557 7.37945C4.38557 7.00573 4.11737 6.70276 3.78653 6.70276C3.4557 6.70276 3.1875 7.00573 3.1875 7.37945C3.1875 7.75317 3.4557 8.05613 3.78653 8.05613Z" fill="#515B60"/>
<path d="M9.68479 8.08773C10.0393 8.08773 10.3266 7.76312 10.3266 7.36271C10.3266 6.96229 10.0393 6.6377 9.68479 6.6377C9.33032 6.6377 9.04297 6.96229 9.04297 7.36271C9.04297 7.76312 9.33032 8.08773 9.68479 8.08773Z" fill="#515B60"/>
<path d="M15.0257 0H2.31769C1.03404 0 0 1.17615 0 2.61813V11.1411C0 12.5912 1.04118 13.7592 2.31769 13.7592H6.8033L8.3294 17.8193C8.3294 17.8193 8.43637 18.1738 8.68597 18.1738C8.9427 18.1738 9.04254 17.8193 9.04254 17.8193L10.5686 13.7592H15.0186C16.3022 13.7592 17.3363 12.5832 17.3363 11.1411V2.61813C17.3363 1.16808 16.2951 0 15.0186 0H15.0257ZM5.44834 7.52409C5.44121 9.07886 4.01494 9.12719 4.01494 9.12719C3.46583 9.12719 3.15205 8.71635 3.15205 8.71635V8.9983H2.11088V4.16483C2.17506 4.18095 3.15205 4.16483 3.15205 4.16483V6.01766C3.39452 5.55042 4.10052 5.55848 4.10052 5.55848C5.64089 5.7196 5.44834 7.5402 5.44834 7.5402V7.52409ZM7.27397 5.68738V8.9983H6.26132V5.7196C6.26132 5.27653 5.76925 5.14764 5.76925 5.14764V3.9876C7.3952 4.06012 7.27397 5.67932 7.27397 5.67932V5.68738ZM9.68436 9.12719C8.74302 9.12719 7.97997 8.33773 7.97997 7.35492C7.97997 6.37212 8.74302 5.58265 9.68436 5.58265C10.6257 5.58265 11.3887 6.37212 11.3887 7.35492C11.3887 8.33773 10.6257 9.12719 9.68436 9.12719ZM15.2539 9.12719C15.2539 9.12719 15.2682 10.8109 13.7564 10.8109H13.2928V9.72332H13.5709C13.5709 9.72332 14.2056 9.78777 14.1985 8.68412C14.1985 8.68412 14.0773 9.13525 13.1858 9.13525C13.1858 9.13525 11.9236 9.03052 11.9236 7.63687V7.10519C11.9236 7.10519 11.9521 5.66321 13.3427 5.54237C13.3427 5.54237 13.8918 5.47792 14.227 5.98543V5.63099H15.2611V9.12719H15.2539Z" fill="#515B60"/>
<path d="M13.6349 8.072C13.9815 8.072 14.2624 7.7546 14.2624 7.36308C14.2624 6.97157 13.9815 6.65417 13.6349 6.65417C13.2883 6.65417 13.0073 6.97157 13.0073 7.36308C13.0073 7.7546 13.2883 8.072 13.6349 8.072Z" fill="#515B60"/>
<path d="M77.3777 2.45434C77.1474 1.48302 76.4795 0.728498 75.6273 0.468321C74.0841 3.0299e-07 67.8962 0 67.8962 0C67.8962 0 61.7082 3.0299e-07 60.165 0.468321C59.3128 0.728498 58.6449 1.49168 58.4146 2.45434C58 4.2062 58 7.86605 58 7.86605C58 7.86605 58 11.5259 58.4146 13.2777C58.6449 14.2491 59.3128 15.0036 60.165 15.2637C61.7082 15.7321 67.8962 15.7321 67.8962 15.7321C67.8962 15.7321 74.0841 15.7321 75.6273 15.2637C76.4795 15.0036 77.1474 14.2404 77.3777 13.2777C77.7923 11.5259 77.7923 7.86605 77.7923 7.86605C77.7923 7.86605 77.7923 4.2062 77.3777 2.45434ZM65.877 11.1877V4.54444L71.0439 7.86605L65.877 11.1877Z" fill="#515B60"/>
<path d="M37.6687 1.55761C39.72 1.55761 39.9577 1.56528 40.766 1.61131C41.5132 1.64968 41.9208 1.7878 42.1924 1.91056C42.5524 2.06402 42.8038 2.25585 43.0755 2.55509C43.3472 2.86201 43.5102 3.1459 43.646 3.55257C43.7479 3.85949 43.877 4.31986 43.9109 5.16389C43.9449 6.07697 43.9585 6.35319 43.9585 8.66274C43.9585 10.9723 43.9517 11.2486 43.9109 12.1617C43.877 13.0056 43.7547 13.466 43.646 13.773C43.5102 14.1796 43.3404 14.4635 43.0755 14.7704C42.8106 15.0773 42.5524 15.2615 42.1924 15.4149C41.9208 15.53 41.5132 15.6758 40.766 15.7142C39.9577 15.7525 39.7132 15.7679 37.6687 15.7679C35.6241 15.7679 35.3796 15.7602 34.5713 15.7142C33.8241 15.6758 33.4166 15.5377 33.1449 15.4149C32.7849 15.2615 32.5336 15.0697 32.2619 14.7704C31.9902 14.4635 31.8272 14.1796 31.6913 13.773C31.5894 13.466 31.4604 13.0056 31.4264 12.1617C31.3925 11.2486 31.3789 10.9723 31.3789 8.66274C31.3789 6.35319 31.3857 6.07697 31.4264 5.16389C31.4604 4.31986 31.5826 3.85949 31.6913 3.55257C31.8272 3.1459 31.997 2.86201 32.2619 2.55509C32.5336 2.24817 32.7849 2.06402 33.1449 1.91056C33.4166 1.79547 33.8241 1.64968 34.5713 1.61131C35.3796 1.57295 35.6241 1.55761 37.6687 1.55761ZM37.6687 0C35.5834 0 35.3253 0.00767242 34.5034 0.0537105C33.6883 0.092075 33.1313 0.245534 32.6423 0.460376C32.1396 0.682892 31.7117 0.974463 31.2838 1.45785C30.8558 1.94126 30.5977 2.42465 30.4008 2.99244C30.2106 3.5449 30.0815 4.17408 30.0475 5.09483C30.0068 6.01558 30 6.31483 30 8.67041C30 11.026 30.0068 11.3176 30.0475 12.246C30.0815 13.1668 30.2174 13.7959 30.4008 14.3484C30.5977 14.9161 30.8558 15.3996 31.2838 15.883C31.7117 16.3664 32.1396 16.6579 32.6423 16.8805C33.1313 17.0953 33.6883 17.241 34.5034 17.2871C35.3185 17.3255 35.5834 17.3408 37.6687 17.3408C39.754 17.3408 40.0121 17.3332 40.834 17.2871C41.6491 17.2487 42.206 17.0953 42.6951 16.8805C43.1977 16.6579 43.6257 16.3664 44.0536 15.883C44.4815 15.3996 44.7396 14.9161 44.9366 14.3484C45.1268 13.7959 45.2558 13.1668 45.2898 12.246C45.3238 11.3253 45.3373 11.026 45.3373 8.67041C45.3373 6.31483 45.3306 6.02325 45.2898 5.09483C45.2558 4.17408 45.12 3.5449 44.9366 2.99244C44.7396 2.42465 44.4815 1.94126 44.0536 1.45785C43.6257 0.974463 43.1977 0.682892 42.6951 0.460376C42.206 0.245534 41.6491 0.0997474 40.834 0.0537105C40.0189 0.0153449 39.754 0 37.6687 0Z" fill="#515B60"/>
<path d="M37.6686 4.10156C35.495 4.10156 33.729 6.09652 33.729 8.55186C33.729 11.0071 35.495 13.0022 37.6686 13.0022C39.8422 13.0022 41.6083 11.0071 41.6083 8.55186C41.6083 6.09652 39.8422 4.10156 37.6686 4.10156ZM37.6686 11.4369C36.2558 11.4369 35.1147 10.1402 35.1147 8.55186C35.1147 6.96356 36.2626 5.66683 37.6686 5.66683C39.0747 5.66683 40.2226 6.96356 40.2226 8.55186C40.2226 10.1402 39.0747 11.4369 37.6686 11.4369Z" fill="#515B60"/>
<path d="M42.6884 4.01545C42.6884 4.59092 42.274 5.05897 41.7646 5.05897C41.2552 5.05897 40.8408 4.59092 40.8408 4.01545C40.8408 3.43997 41.2552 2.97192 41.7646 2.97192C42.274 2.97192 42.6884 3.43997 42.6884 4.01545Z" fill="#515B60"/>
</svg>
